<svg xmlns="http://www.w3.org/2000/svg" aria-hidden="true" style="position:absolute;width:0;height:0;overflow:hidden">
  <defs>
    <symbol id="icon-arrow" viewBox="0 0 36 32">
      <path d="M1.062 17.414C.7 17.052.476 16.552.476 16s.224-1.052.586-1.414L13.79 1.858a2 2 0 1 1 2.829 2.827l-.001.001L5.304 16l11.314 11.314a2 2 0 1 1-2.827 2.829l-.001-.001L1.06 17.414zM36 18H2.476v-4H36v4z"/>
    </symbol>
    <symbol id="icon-facebook" viewBox="0 0 32 32">
      <path d="M0 16C0 7.163 7.163 0 16 0s16 7.163 16 16-7.163 16-16 16S0 24.837 0 16zm17.668 9.408v-8.705h2.403l.318-3h-2.721l.004-1.501c0-.783.074-1.202 1.198-1.202h1.502V8H17.97c-2.887 0-3.903 1.455-3.903 3.902v1.801h-1.8v3h1.8v8.705h3.602z"/>
    </symbol>
    <symbol id="icon-instagram" viewBox="0 0 32 32">
      <path d="M0 16C0 7.163 7.163 0 16 0s16 7.163 16 16-7.163 16-16 16S0 24.837 0 16zm16-8.533c-2.317 0-2.608.01-3.518.051-.908.042-1.528.186-2.07.397a4.205 4.205 0 0 0-1.512.983l-.001.001c-.423.416-.758.92-.975 1.482l-.01.029c-.211.543-.355 1.163-.396 2.071-.04.91-.051 1.201-.051 3.52 0 2.317.01 2.607.051 3.517.042.908.186 1.528.397 2.07.226.592.561 1.097.983 1.512l.001.001c.474.474.95.767 1.511.985.543.21 1.163.354 2.072.396.91.041 1.2.052 3.518.052 2.317 0 2.607-.01 3.518-.052.908-.042 1.529-.185 2.072-.396a4.182 4.182 0 0 0 1.509-.984l.001-.001c.475-.475.767-.95.985-1.512.21-.543.354-1.163.397-2.071.04-.91.051-1.2.051-3.518s-.01-2.608-.051-3.518c-.043-.909-.187-1.53-.397-2.072a4.208 4.208 0 0 0-.984-1.509L23.1 8.9a4.175 4.175 0 0 0-1.481-.974l-.029-.01c-.545-.211-1.165-.355-2.074-.397-.91-.041-1.2-.051-3.518-.051h.003z"/>
      <path d="M15.235 9.005h.766c2.278 0 2.548.008 3.448.049.832.038 1.283.177 1.584.294.398.154.682.34.98.638.3.299.484.583.64.981.116.3.255.752.293 1.584.041.9.05 1.17.05 3.447s-.009 2.548-.05 3.448c-.038.832-.177 1.283-.294 1.584-.154.398-.34.681-.638.98a2.643 2.643 0 0 1-.962.632l-.018.006c-.301.117-.753.256-1.585.294-.9.041-1.17.05-3.448.05s-2.55-.009-3.449-.05c-.832-.038-1.283-.177-1.584-.294a2.659 2.659 0 0 1-.981-.637l-.001-.001a2.646 2.646 0 0 1-.632-.963l-.006-.018c-.117-.3-.256-.752-.294-1.584-.04-.9-.049-1.17-.049-3.449s.008-2.547.05-3.447c.037-.832.176-1.283.293-1.584a2.65 2.65 0 0 1 .638-.981c.3-.3.584-.484.982-.639.3-.117.752-.256 1.584-.294.788-.036 1.093-.046 2.683-.048v.002zm5.32 1.417-.032-.001a1.023 1.023 0 1 0 0 2.048l.034-.001h-.002a1.024 1.024 0 0 0 .002-2.047h-.002zm-4.554 1.196-.066-.001a4.383 4.383 0 1 0 0 8.766l.07-.001h-.003a4.384 4.384 0 0 0 .004-8.765h-.003z"/>
      <path d="M16 13.155a2.845 2.845 0 0 1 0 5.69 2.845 2.845 0 0 1 0-5.69z"/>
    </symbol>  
  </defs>
</svg>
